{
	"asset":{
		"generator":"Khronos glTF Blender I/O v3.6.28",
		"version":"2.0"
	},
	"scene":0,
	"scenes":[
		{
			"name":"Scene",
			"nodes":[
				0
			]
		}
	],
	"nodes":[
		{
			"mesh":0,
			"name":"arm_link"
		}
	],
	"meshes":[
		{
			"name":"arm_link",
			"primitives":[
				{
					"attributes":{
						"POSITION":0,
						"NORMAL":1
					},
					"indices":2
				}
			]
		}
	],
	"accessors":[
		{
			"bufferView":0,
			"componentType":5126,
			"count":6962,
			"max":[
				0.03950394690036774,
				0.0567193403840065,
				0.03949884697794914
			],
			"min":[
				-0.03950394690036774,
				0.00025001473841257393,
				-0.31949886679649353
			],
			"type":"VEC3"
		},
		{
			"bufferView":1,
			"componentType":5126,
			"count":6962,
			"type":"VEC3"
		},
		{
			"bufferView":2,
			"componentType":5123,
			"count":41760,
			"type":"SCALAR"
		}
	],
	"bufferViews":[
		{
			"buffer":0,
			"byteLength":83544,
			"byteOffset":0,
			"target":34962
		},
		{
			"buffer":0,
			"byteLength":83544,
			"byteOffset":83544,
			"target":34962
		},
		{
			"buffer":0,
			"byteLength":83520,
			"byteOffset":167088,
			"target":34963
		}
	],
	"buffers":[
		{
			"byteLength":250608,
			"uri":"arm_link.bin"
		}
	]
}
