{
	"asset":{
		"generator":"Khronos glTF Blender I/O v3.6.28",
		"version":"2.0"
	},
	"scene":0,
	"scenes":[
		{
			"name":"Scene",
			"nodes":[
				0
			]
		}
	],
	"nodes":[
		{
			"mesh":0,
			"name":"base_link"
		}
	],
	"meshes":[
		{
			"name":"base_link",
			"primitives":[
				{
					"attributes":{
						"POSITION":0,
						"NORMAL":1
					},
					"indices":2
				}
			]
		}
	],
	"accessors":[
		{
			"bufferView":0,
			"componentType":5126,
			"count":18662,
			"max":[
				0.03988959267735481,
				0.12800000607967377,
				0.039500001817941666
			],
			"min":[
				-0.039500001817941666,
				0,
				-0.039500001817941666
			],
			"type":"VEC3"
		},
		{
			"bufferView":1,
			"componentType":5126,
			"count":18662,
			"type":"VEC3"
		},
		{
			"bufferView":2,
			"componentType":5123,
			"count":112044,
			"type":"SCALAR"
		}
	],
	"bufferViews":[
		{
			"buffer":0,
			"byteLength":223944,
			"byteOffset":0,
			"target":34962
		},
		{
			"buffer":0,
			"byteLength":223944,
			"byteOffset":223944,
			"target":34962
		},
		{
			"buffer":0,
			"byteLength":224088,
			"byteOffset":447888,
			"target":34963
		}
	],
	"buffers":[
		{
			"byteLength":671976,
			"uri":"base_link.bin"
		}
	]
}
