{
	"asset":{
		"generator":"Khronos glTF Blender I/O v3.6.28",
		"version":"2.0"
	},
	"scene":0,
	"scenes":[
		{
			"name":"Scene",
			"nodes":[
				0
			]
		}
	],
	"nodes":[
		{
			"mesh":0,
			"name":"forearm_link"
		}
	],
	"meshes":[
		{
			"name":"forearm_link",
			"primitives":[
				{
					"attributes":{
						"POSITION":0,
						"NORMAL":1
					},
					"indices":2
				}
			]
		}
	],
	"accessors":[
		{
			"bufferView":0,
			"componentType":5126,
			"count":8300,
			"max":[
				0.040259137749671936,
				0.05500413477420807,
				0.13975000381469727
			],
			"min":[
				-0.040259137749671936,
				-0.01274904329329729,
				-0.03949877247214317
			],
			"type":"VEC3"
		},
		{
			"bufferView":1,
			"componentType":5126,
			"count":8300,
			"type":"VEC3"
		},
		{
			"bufferView":2,
			"componentType":5123,
			"count":49788,
			"type":"SCALAR"
		}
	],
	"bufferViews":[
		{
			"buffer":0,
			"byteLength":99600,
			"byteOffset":0,
			"target":34962
		},
		{
			"buffer":0,
			"byteLength":99600,
			"byteOffset":99600,
			"target":34962
		},
		{
			"buffer":0,
			"byteLength":99576,
			"byteOffset":199200,
			"target":34963
		}
	],
	"buffers":[
		{
			"byteLength":298776,
			"uri":"forearm_link.bin"
		}
	]
}
