{
	"asset":{
		"generator":"Khronos glTF Blender I/O v3.6.28",
		"version":"2.0"
	},
	"scene":0,
	"scenes":[
		{
			"name":"Scene",
			"nodes":[
				0
			]
		}
	],
	"nodes":[
		{
			"mesh":0,
			"name":"gripper_base_link"
		}
	],
	"meshes":[
		{
			"name":"gripper_base_link",
			"primitives":[
				{
					"attributes":{
						"POSITION":0,
						"NORMAL":1
					},
					"indices":2
				}
			]
		}
	],
	"accessors":[
		{
			"bufferView":0,
			"componentType":5126,
			"count":12707,
			"max":[
				0.03299111872911453,
				0.07764634490013123,
				0.04473606124520302
			],
			"min":[
				-0.03299112617969513,
				0.00025001002359203994,
				-0.04473606124520302
			],
			"type":"VEC3"
		},
		{
			"bufferView":1,
			"componentType":5126,
			"count":12707,
			"type":"VEC3"
		},
		{
			"bufferView":2,
			"componentType":5123,
			"count":76674,
			"type":"SCALAR"
		}
	],
	"bufferViews":[
		{
			"buffer":0,
			"byteLength":152484,
			"byteOffset":0,
			"target":34962
		},
		{
			"buffer":0,
			"byteLength":152484,
			"byteOffset":152484,
			"target":34962
		},
		{
			"buffer":0,
			"byteLength":153348,
			"byteOffset":304968,
			"target":34963
		}
	],
	"buffers":[
		{
			"byteLength":458316,
			"uri":"gripper_base_link.bin"
		}
	]
}
