{
	"asset":{
		"generator":"Khronos glTF Blender I/O v3.6.28",
		"version":"2.0"
	},
	"scene":0,
	"scenes":[
		{
			"name":"Scene",
			"nodes":[
				0
			]
		}
	],
	"nodes":[
		{
			"mesh":0,
			"name":"lower_wrist_link"
		}
	],
	"meshes":[
		{
			"name":"lower_wrist_link",
			"primitives":[
				{
					"attributes":{
						"POSITION":0,
						"NORMAL":1
					},
					"indices":2
				}
			]
		}
	],
	"accessors":[
		{
			"bufferView":0,
			"componentType":5126,
			"count":2611,
			"max":[
				0.032748933881521225,
				0.1377549022436142,
				0.03274790197610855
			],
			"min":[
				-0.03274909406900406,
				0.00025003147311508656,
				-0.03274918720126152
			],
			"type":"VEC3"
		},
		{
			"bufferView":1,
			"componentType":5126,
			"count":2611,
			"type":"VEC3"
		},
		{
			"bufferView":2,
			"componentType":5123,
			"count":15654,
			"type":"SCALAR"
		}
	],
	"bufferViews":[
		{
			"buffer":0,
			"byteLength":31332,
			"byteOffset":0,
			"target":34962
		},
		{
			"buffer":0,
			"byteLength":31332,
			"byteOffset":31332,
			"target":34962
		},
		{
			"buffer":0,
			"byteLength":31308,
			"byteOffset":62664,
			"target":34963
		}
	],
	"buffers":[
		{
			"byteLength":93972,
			"uri":"lower_wrist_link.bin"
		}
	]
}
