{
	"asset":{
		"generator":"Khronos glTF Blender I/O v3.6.28",
		"version":"2.0"
	},
	"scene":0,
	"scenes":[
		{
			"name":"Scene",
			"nodes":[
				0
			]
		}
	],
	"nodes":[
		{
			"mesh":0,
			"name":"right_finger_dist_link"
		}
	],
	"meshes":[
		{
			"name":"right_finger_dist_link",
			"primitives":[
				{
					"attributes":{
						"POSITION":0,
						"NORMAL":1
					},
					"indices":2
				}
			]
		}
	],
	"accessors":[
		{
			"bufferView":0,
			"componentType":5126,
			"count":6546,
			"max":[
				6.792286148993298e-05,
				0.011796446517109871,
				0.009972276166081429
			],
			"min":[
				-0.04351062700152397,
				-0.011796446517109871,
				-0.010077698156237602
			],
			"type":"VEC3"
		},
		{
			"bufferView":1,
			"componentType":5126,
			"count":6546,
			"type":"VEC3"
		},
		{
			"bufferView":2,
			"componentType":5123,
			"count":39264,
			"type":"SCALAR"
		}
	],
	"bufferViews":[
		{
			"buffer":0,
			"byteLength":78552,
			"byteOffset":0,
			"target":34962
		},
		{
			"buffer":0,
			"byteLength":78552,
			"byteOffset":78552,
			"target":34962
		},
		{
			"buffer":0,
			"byteLength":78528,
			"byteOffset":157104,
			"target":34963
		}
	],
	"buffers":[
		{
			"byteLength":235632,
			"uri":"right_finger_dist_link.bin"
		}
	]
}
