{
	"asset":{
		"generator":"Khronos glTF Blender I/O v3.6.28",
		"version":"2.0"
	},
	"scene":0,
	"scenes":[
		{
			"name":"Scene",
			"nodes":[
				0
			]
		}
	],
	"nodes":[
		{
			"mesh":0,
			"name":"right_finger_prox_link"
		}
	],
	"meshes":[
		{
			"name":"right_finger_prox_link",
			"primitives":[
				{
					"attributes":{
						"POSITION":0,
						"NORMAL":1
					},
					"indices":2
				}
			]
		}
	],
	"accessors":[
		{
			"bufferView":0,
			"componentType":5126,
			"count":8665,
			"max":[
				0.0059996098279953,
				0.012119898572564125,
				0.015748726204037666
			],
			"min":[
				-0.04675733670592308,
				-0.011980099603533745,
				-0.023719562217593193
			],
			"type":"VEC3"
		},
		{
			"bufferView":1,
			"componentType":5126,
			"count":8665,
			"type":"VEC3"
		},
		{
			"bufferView":2,
			"componentType":5123,
			"count":51990,
			"type":"SCALAR"
		}
	],
	"bufferViews":[
		{
			"buffer":0,
			"byteLength":103980,
			"byteOffset":0,
			"target":34962
		},
		{
			"buffer":0,
			"byteLength":103980,
			"byteOffset":103980,
			"target":34962
		},
		{
			"buffer":0,
			"byteLength":103980,
			"byteOffset":207960,
			"target":34963
		}
	],
	"buffers":[
		{
			"byteLength":311940,
			"uri":"right_finger_prox_link.bin"
		}
	]
}
