{
	"asset":{
		"generator":"Khronos glTF Blender I/O v3.6.28",
		"version":"2.0"
	},
	"scene":0,
	"scenes":[
		{
			"name":"Scene",
			"nodes":[
				0
			]
		}
	],
	"nodes":[
		{
			"mesh":0,
			"name":"shoulder_link"
		}
	],
	"meshes":[
		{
			"name":"shoulder_link",
			"primitives":[
				{
					"attributes":{
						"POSITION":0,
						"NORMAL":1
					},
					"indices":2
				}
			]
		}
	],
	"accessors":[
		{
			"bufferView":0,
			"componentType":5126,
			"count":2515,
			"max":[
				0.03947168588638306,
				0.15449920296669006,
				0.03949897736310959
			],
			"min":[
				-0.03947168588638306,
				0.0002500201517250389,
				-0.039499156177043915
			],
			"type":"VEC3"
		},
		{
			"bufferView":1,
			"componentType":5126,
			"count":2515,
			"type":"VEC3"
		},
		{
			"bufferView":2,
			"componentType":5123,
			"count":15078,
			"type":"SCALAR"
		}
	],
	"bufferViews":[
		{
			"buffer":0,
			"byteLength":30180,
			"byteOffset":0,
			"target":34962
		},
		{
			"buffer":0,
			"byteLength":30180,
			"byteOffset":30180,
			"target":34962
		},
		{
			"buffer":0,
			"byteLength":30156,
			"byteOffset":60360,
			"target":34963
		}
	],
	"buffers":[
		{
			"byteLength":90516,
			"uri":"shoulder_link.bin"
		}
	]
}
