{
	"asset":{
		"generator":"Khronos glTF Blender I/O v3.6.28",
		"version":"2.0"
	},
	"scene":0,
	"scenes":[
		{
			"name":"Scene",
			"nodes":[
				0
			]
		}
	],
	"nodes":[
		{
			"mesh":0,
			"name":"upper_wrist_link"
		}
	],
	"meshes":[
		{
			"name":"upper_wrist_link",
			"primitives":[
				{
					"attributes":{
						"POSITION":0,
						"NORMAL":1
					},
					"indices":2
				}
			]
		}
	],
	"accessors":[
		{
			"bufferView":0,
			"componentType":5126,
			"count":11292,
			"max":[
				0.03275490924715996,
				0.06124909594655037,
				0.03274790197610855
			],
			"min":[
				-0.13745002448558807,
				-0.004248935729265213,
				-0.03274918720126152
			],
			"type":"VEC3"
		},
		{
			"bufferView":1,
			"componentType":5126,
			"count":11292,
			"type":"VEC3"
		},
		{
			"bufferView":2,
			"componentType":5123,
			"count":68052,
			"type":"SCALAR"
		}
	],
	"bufferViews":[
		{
			"buffer":0,
			"byteLength":135504,
			"byteOffset":0,
			"target":34962
		},
		{
			"buffer":0,
			"byteLength":135504,
			"byteOffset":135504,
			"target":34962
		},
		{
			"buffer":0,
			"byteLength":136104,
			"byteOffset":271008,
			"target":34963
		}
	],
	"buffers":[
		{
			"byteLength":407112,
			"uri":"upper_wrist_link.bin"
		}
	]
}
